<?xml version="1.0" encoding="UTF-8"?>
<svg xmlns="http://www.w3.org/2000/svg" xmlns:xlink="http://www.w3.org/1999/xlink" width="32px" height="32px" viewBox="0 0 32 32" version="1.1">
<g id="surface1">
<path style=" stroke:none;fill-rule:nonzero;fill:rgb(0%,0%,0%);fill-opacity:1;" d="M 24.199219 0 L 7.800781 0 C 6.410156 0 5.277344 1.132812 5.277344 2.523438 L 5.277344 26.003906 C 5.277344 27.398438 6.410156 28.53125 7.800781 28.53125 L 13.816406 28.53125 L 13.816406 31.441406 C 13.816406 31.75 14.066406 32 14.375 32 C 14.6875 32 14.9375 31.75 14.9375 31.441406 L 14.9375 28.53125 L 17.0625 28.53125 L 17.0625 31.441406 C 17.0625 31.75 17.3125 32 17.625 32 C 17.933594 32 18.183594 31.75 18.183594 31.441406 L 18.183594 28.53125 L 24.199219 28.53125 C 25.589844 28.53125 26.722656 27.398438 26.722656 26.003906 L 26.722656 2.523438 C 26.722656 1.132812 25.589844 0 24.199219 0 Z M 24.199219 27.410156 L 7.800781 27.410156 C 7.027344 27.410156 6.394531 26.78125 6.394531 26.003906 L 6.394531 2.523438 C 6.394531 1.75 7.027344 1.121094 7.800781 1.121094 L 24.199219 1.121094 C 24.972656 1.121094 25.605469 1.75 25.605469 2.523438 L 25.605469 26.003906 C 25.605469 26.78125 24.972656 27.410156 24.199219 27.410156 Z M 24.199219 27.410156 "/>
<path style=" stroke:none;fill-rule:nonzero;fill:rgb(0%,0%,0%);fill-opacity:1;" d="M 16 18.710938 C 13.964844 18.710938 12.304688 20.367188 12.304688 22.402344 C 12.304688 24.441406 13.964844 26.097656 16 26.097656 C 18.035156 26.097656 19.695312 24.441406 19.695312 22.402344 C 19.695312 20.367188 18.035156 18.710938 16 18.710938 Z M 16 24.976562 C 14.582031 24.976562 13.425781 23.824219 13.425781 22.402344 C 13.425781 20.984375 14.582031 19.828125 16 19.828125 C 17.417969 19.828125 18.574219 20.984375 18.574219 22.402344 C 18.574219 23.824219 17.417969 24.976562 16 24.976562 Z M 16 24.976562 "/>
<path style=" stroke:none;fill-rule:nonzero;fill:rgb(0%,0%,0%);fill-opacity:1;" d="M 16 20.804688 C 15.691406 20.804688 15.441406 21.054688 15.441406 21.367188 L 15.441406 22.402344 C 15.441406 22.710938 15.691406 22.964844 16 22.964844 C 16.308594 22.964844 16.558594 22.710938 16.558594 22.402344 L 16.558594 21.367188 C 16.558594 21.054688 16.308594 20.804688 16 20.804688 Z M 16 20.804688 "/>
<path style=" stroke:none;fill-rule:nonzero;fill:rgb(0%,0%,0%);fill-opacity:1;" d="M 19.238281 9.902344 C 18.738281 8.867188 17.96875 8.316406 17.9375 8.296875 C 17.746094 8.160156 17.492188 8.160156 17.296875 8.292969 C 17.105469 8.425781 17.015625 8.664062 17.074219 8.890625 C 17.078125 8.917969 17.085938 8.945312 17.089844 8.972656 C 16.386719 7.0625 15.007812 6.21875 14.933594 6.171875 C 14.738281 6.058594 14.496094 6.070312 14.316406 6.203125 C 14.132812 6.332031 14.050781 6.5625 14.101562 6.78125 L 14.285156 7.582031 C 14.476562 8.410156 14.1875 9.261719 13.535156 9.808594 C 12.433594 10.726562 12.035156 12.246094 12.546875 13.589844 L 12.835938 14.34375 C 12.945312 14.632812 13.269531 14.777344 13.558594 14.667969 C 13.847656 14.554688 13.992188 14.230469 13.878906 13.945312 L 13.59375 13.191406 C 13.25 12.296875 13.515625 11.28125 14.253906 10.667969 C 14.992188 10.050781 15.417969 9.171875 15.460938 8.246094 C 15.921875 8.910156 16.355469 9.890625 16.375 11.242188 C 16.378906 11.472656 16.523438 11.679688 16.742188 11.757812 C 16.957031 11.839844 17.203125 11.777344 17.355469 11.605469 C 17.386719 11.566406 17.878906 11 18.117188 10.171875 C 18.566406 10.957031 18.867188 12.21875 17.964844 13.929688 C 17.820312 14.203125 17.925781 14.542969 18.199219 14.6875 C 18.285156 14.730469 18.371094 14.75 18.460938 14.75 C 18.660156 14.75 18.855469 14.640625 18.957031 14.453125 C 20.027344 12.421875 19.699219 10.859375 19.238281 9.902344 Z M 19.238281 9.902344 "/>
<path style=" stroke:none;fill-rule:nonzero;fill:rgb(0%,0%,0%);fill-opacity:1;" d="M 22.082031 4.152344 L 9.917969 4.152344 C 9.609375 4.152344 9.359375 4.402344 9.359375 4.710938 L 9.359375 16.878906 C 9.359375 17.1875 9.609375 17.4375 9.917969 17.4375 L 22.082031 17.4375 C 22.390625 17.4375 22.640625 17.1875 22.640625 16.878906 L 22.640625 4.710938 C 22.640625 4.402344 22.390625 4.152344 22.082031 4.152344 Z M 21.523438 16.316406 L 10.476562 16.316406 L 10.476562 5.273438 L 21.523438 5.273438 Z M 21.523438 16.316406 "/>
</g>
</svg>
