<?xml version="1.0" encoding="UTF-8"?>
<svg xmlns="http://www.w3.org/2000/svg" xmlns:xlink="http://www.w3.org/1999/xlink" width="32px" height="32px" viewBox="0 0 32 32" version="1.1">
<g id="surface1">
<path style="fill:none;stroke-width:10;stroke-linecap:butt;stroke-linejoin:miter;stroke:rgb(0%,0%,0%);stroke-opacity:1;stroke-miterlimit:4;" d="M 155 80 C 155 38.574219 121.425781 5 80 5 C 38.574219 5 5 38.574219 5 80 C 5 121.425781 38.574219 155 80 155 C 121.425781 155 155 121.425781 155 80 Z M 155 80 " transform="matrix(0.2,0,0,0.2,0,0)"/>
<path style="fill:none;stroke-width:5;stroke-linecap:butt;stroke-linejoin:miter;stroke:rgb(0%,0%,0%);stroke-opacity:1;stroke-miterlimit:4;" d="M 55 85 C 55 79.472656 50.527344 75 45 75 C 39.472656 75 35 79.472656 35 85 C 35 90.527344 39.472656 95 45 95 C 50.527344 95 55 90.527344 55 85 Z M 55 85 " transform="matrix(0.2,0,0,0.2,0,0)"/>
<path style="fill:none;stroke-width:5;stroke-linecap:butt;stroke-linejoin:miter;stroke:rgb(0%,0%,0%);stroke-opacity:1;stroke-miterlimit:4;" d="M 125 85 C 125 79.472656 120.527344 75 115 75 C 109.472656 75 105 79.472656 105 85 C 105 90.527344 109.472656 95 115 95 C 120.527344 95 125 90.527344 125 85 Z M 125 85 " transform="matrix(0.2,0,0,0.2,0,0)"/>
<path style="fill-rule:nonzero;fill:rgb(0%,0%,0%);fill-opacity:1;stroke-width:10;stroke-linecap:butt;stroke-linejoin:miter;stroke:rgb(0%,0%,0%);stroke-opacity:1;stroke-miterlimit:4;" d="M 85 45 C 85 42.246094 82.753906 40 80 40 C 77.246094 40 75 42.246094 75 45 C 75 47.753906 77.246094 50 80 50 C 82.753906 50 85 47.753906 85 45 Z M 85 45 " transform="matrix(0.2,0,0,0.2,0,0)"/>
</g>
</svg>
