<?xml version="1.0" encoding="UTF-8"?>
<svg xmlns="http://www.w3.org/2000/svg" xmlns:xlink="http://www.w3.org/1999/xlink" width="32px" height="32px" viewBox="0 0 32 32" version="1.1">
<g id="surface1">
<path style=" stroke:none;fill-rule:nonzero;fill:rgb(0%,0%,0%);fill-opacity:1;" d="M 28.730469 10.273438 C 28.265625 10.273438 27.890625 10.648438 27.890625 11.113281 L 27.890625 14.398438 L 26.949219 14.398438 L 26.949219 13.652344 C 26.949219 11.789062 25.433594 10.273438 23.570312 10.273438 C 22.5625 10.273438 21.65625 10.722656 21.035156 11.429688 C 20.414062 10.722656 19.507812 10.273438 18.496094 10.273438 C 17.484375 10.273438 16.578125 10.722656 15.960938 11.429688 C 15.339844 10.722656 14.433594 10.273438 13.421875 10.273438 C 12.410156 10.273438 11.503906 10.722656 10.886719 11.429688 C 10.265625 10.722656 9.359375 10.273438 8.347656 10.273438 C 6.488281 10.273438 4.972656 11.789062 4.972656 13.652344 L 4.972656 14.398438 L 3.273438 14.398438 C 2.808594 14.398438 2.433594 14.777344 2.433594 15.238281 C 2.433594 15.703125 2.808594 16.082031 3.273438 16.082031 L 4.96875 16.082031 L 4.96875 28.621094 C 4.96875 30.484375 6.484375 32 8.347656 32 C 9.359375 32 10.265625 31.550781 10.882812 30.84375 C 11.503906 31.550781 12.410156 32 13.421875 32 C 14.433594 32 15.339844 31.550781 15.957031 30.84375 C 16.578125 31.550781 17.484375 32 18.496094 32 C 19.507812 32 20.414062 31.550781 21.035156 30.84375 C 21.652344 31.550781 22.558594 32 23.570312 32 C 25.433594 32 26.949219 30.484375 26.949219 28.621094 L 26.949219 16.082031 L 28.726562 16.082031 C 29.191406 16.082031 29.566406 15.703125 29.566406 15.242188 L 29.566406 11.113281 C 29.570312 10.648438 29.191406 10.273438 28.730469 10.273438 Z M 25.269531 16.082031 L 25.269531 28.621094 C 25.269531 29.558594 24.507812 30.320312 23.570312 30.320312 C 22.636719 30.320312 21.875 29.558594 21.875 28.621094 L 21.875 13.652344 C 21.875 12.714844 22.636719 11.953125 23.570312 11.953125 C 24.507812 11.953125 25.269531 12.714844 25.269531 13.652344 Z M 20.195312 28.621094 C 20.195312 29.558594 19.433594 30.320312 18.496094 30.320312 C 17.5625 30.320312 16.800781 29.558594 16.800781 28.621094 L 16.800781 13.652344 C 16.800781 12.714844 17.5625 11.953125 18.496094 11.953125 C 19.433594 11.953125 20.195312 12.714844 20.195312 13.652344 Z M 15.121094 28.621094 C 15.121094 29.558594 14.359375 30.320312 13.421875 30.320312 C 12.488281 30.320312 11.726562 29.558594 11.726562 28.621094 L 11.726562 13.652344 C 11.726562 12.714844 12.488281 11.953125 13.421875 11.953125 C 14.359375 11.953125 15.121094 12.714844 15.121094 13.652344 Z M 10.042969 28.621094 C 10.042969 29.558594 9.28125 30.320312 8.347656 30.320312 C 7.414062 30.320312 6.652344 29.558594 6.652344 28.621094 L 6.652344 13.652344 C 6.652344 12.714844 7.414062 11.953125 8.347656 11.953125 C 9.28125 11.953125 10.042969 12.714844 10.042969 13.652344 Z M 10.042969 28.621094 "/>
<path style=" stroke:none;fill-rule:nonzero;fill:rgb(0%,0%,0%);fill-opacity:1;" d="M 10.371094 0.28125 C 9.613281 1.183594 9.300781 2.140625 9.675781 3.289062 C 10.046875 4.425781 11.183594 5.464844 10.277344 6.628906 C 9.621094 7.476562 10.800781 8.671875 11.464844 7.820312 C 12.214844 6.859375 12.535156 5.875 12.160156 4.683594 C 11.820312 3.605469 10.652344 2.550781 11.558594 1.46875 C 12.25 0.644531 11.066406 -0.550781 10.371094 0.28125 Z M 10.371094 0.28125 "/>
<path style=" stroke:none;fill-rule:nonzero;fill:rgb(0%,0%,0%);fill-opacity:1;" d="M 16.507812 7.820312 C 17.257812 6.855469 17.578125 5.875 17.203125 4.683594 C 16.859375 3.605469 15.695312 2.550781 16.601562 1.46875 C 17.292969 0.644531 16.109375 -0.550781 15.414062 0.28125 C 14.65625 1.183594 14.34375 2.140625 14.71875 3.289062 C 15.089844 4.425781 16.226562 5.464844 15.320312 6.628906 C 14.664062 7.476562 15.84375 8.671875 16.507812 7.820312 Z M 16.507812 7.820312 "/>
<path style=" stroke:none;fill-rule:nonzero;fill:rgb(0%,0%,0%);fill-opacity:1;" d="M 20.453125 0.28125 C 19.695312 1.183594 19.386719 2.140625 19.761719 3.289062 C 20.132812 4.425781 21.269531 5.464844 20.363281 6.628906 C 19.703125 7.476562 20.882812 8.671875 21.550781 7.820312 C 22.296875 6.859375 22.621094 5.875 22.242188 4.683594 C 21.902344 3.605469 20.738281 2.550781 21.644531 1.46875 C 22.335938 0.644531 21.152344 -0.550781 20.453125 0.28125 Z M 20.453125 0.28125 "/>
</g>
</svg>
