<?xml version="1.0" encoding="UTF-8"?>
<svg xmlns="http://www.w3.org/2000/svg" xmlns:xlink="http://www.w3.org/1999/xlink" width="20px" height="20px" viewBox="0 0 20 20" version="1.1">
<g id="surface1">
<path style=" stroke:none;fill-rule:nonzero;fill:rgb(0%,0%,0%);fill-opacity:1;" d="M 17.957031 6.421875 C 17.664062 6.421875 17.429688 6.65625 17.429688 6.945312 L 17.429688 9 L 16.84375 9 L 16.84375 8.53125 C 16.84375 7.367188 15.894531 6.421875 14.734375 6.421875 C 14.101562 6.421875 13.535156 6.703125 13.148438 7.144531 C 12.757812 6.703125 12.191406 6.421875 11.5625 6.421875 C 10.929688 6.421875 10.363281 6.703125 9.976562 7.144531 C 9.585938 6.703125 9.019531 6.421875 8.390625 6.421875 C 7.757812 6.421875 7.191406 6.703125 6.804688 7.144531 C 6.417969 6.703125 5.851562 6.421875 5.21875 6.421875 C 4.054688 6.421875 3.105469 7.367188 3.105469 8.53125 L 3.105469 9 L 2.046875 9 C 1.753906 9 1.519531 9.234375 1.519531 9.523438 C 1.519531 9.816406 1.753906 10.050781 2.046875 10.050781 L 3.105469 10.050781 L 3.105469 17.890625 C 3.105469 19.054688 4.054688 20 5.21875 20 C 5.847656 20 6.414062 19.71875 6.804688 19.277344 C 7.191406 19.71875 7.757812 20 8.386719 20 C 9.019531 20 9.585938 19.71875 9.972656 19.277344 C 10.363281 19.71875 10.929688 20 11.558594 20 C 12.191406 20 12.757812 19.71875 13.144531 19.277344 C 13.53125 19.71875 14.101562 20 14.730469 20 C 15.894531 20 16.84375 19.054688 16.84375 17.890625 L 16.84375 10.050781 L 17.953125 10.050781 C 18.246094 10.050781 18.480469 9.816406 18.480469 9.527344 L 18.480469 6.945312 C 18.480469 6.65625 18.246094 6.421875 17.957031 6.421875 Z M 15.792969 10.050781 L 15.792969 17.890625 C 15.792969 18.472656 15.316406 18.949219 14.734375 18.949219 C 14.148438 18.949219 13.671875 18.472656 13.671875 17.890625 L 13.671875 8.53125 C 13.671875 7.945312 14.148438 7.472656 14.734375 7.472656 C 15.316406 7.472656 15.792969 7.945312 15.792969 8.53125 Z M 12.621094 17.890625 C 12.621094 18.472656 12.144531 18.949219 11.5625 18.949219 C 10.976562 18.949219 10.5 18.472656 10.5 17.890625 L 10.5 8.53125 C 10.5 7.945312 10.976562 7.472656 11.5625 7.472656 C 12.144531 7.472656 12.621094 7.945312 12.621094 8.53125 Z M 9.449219 17.890625 C 9.449219 18.472656 8.972656 18.949219 8.390625 18.949219 C 7.804688 18.949219 7.328125 18.472656 7.328125 17.890625 L 7.328125 8.53125 C 7.328125 7.945312 7.804688 7.472656 8.390625 7.472656 C 8.972656 7.472656 9.449219 7.945312 9.449219 8.53125 Z M 6.277344 17.890625 C 6.277344 18.472656 5.800781 18.949219 5.21875 18.949219 C 4.632812 18.949219 4.15625 18.472656 4.15625 17.890625 L 4.15625 8.53125 C 4.15625 7.945312 4.632812 7.472656 5.21875 7.472656 C 5.800781 7.472656 6.277344 7.945312 6.277344 8.53125 Z M 6.277344 17.890625 "/>
<path style=" stroke:none;fill-rule:nonzero;fill:rgb(0%,0%,0%);fill-opacity:1;" d="M 6.480469 0.175781 C 6.007812 0.742188 5.8125 1.339844 6.046875 2.058594 C 6.28125 2.765625 6.992188 3.414062 6.421875 4.144531 C 6.011719 4.671875 6.75 5.421875 7.164062 4.886719 C 7.632812 4.285156 7.835938 3.671875 7.597656 2.925781 C 7.386719 2.253906 6.660156 1.59375 7.222656 0.917969 C 7.65625 0.402344 6.917969 -0.34375 6.480469 0.175781 Z M 6.480469 0.175781 "/>
<path style=" stroke:none;fill-rule:nonzero;fill:rgb(0%,0%,0%);fill-opacity:1;" d="M 10.316406 4.886719 C 10.785156 4.285156 10.988281 3.671875 10.75 2.925781 C 10.539062 2.253906 9.808594 1.59375 10.375 0.917969 C 10.808594 0.402344 10.070312 -0.34375 9.632812 0.175781 C 9.160156 0.742188 8.964844 1.339844 9.199219 2.058594 C 9.429688 2.765625 10.140625 3.414062 9.574219 4.144531 C 9.164062 4.671875 9.902344 5.421875 10.316406 4.886719 Z M 10.316406 4.886719 "/>
<path style=" stroke:none;fill-rule:nonzero;fill:rgb(0%,0%,0%);fill-opacity:1;" d="M 12.785156 0.175781 C 12.3125 0.742188 12.117188 1.339844 12.351562 2.058594 C 12.582031 2.765625 13.292969 3.414062 12.726562 4.144531 C 12.316406 4.671875 13.054688 5.421875 13.46875 4.886719 C 13.9375 4.285156 14.136719 3.671875 13.902344 2.925781 C 13.6875 2.253906 12.960938 1.59375 13.527344 0.917969 C 13.957031 0.402344 13.21875 -0.34375 12.785156 0.175781 Z M 12.785156 0.175781 "/>
</g>
</svg>
