<?xml version="1.0" encoding="UTF-8"?>
<svg xmlns="http://www.w3.org/2000/svg" xmlns:xlink="http://www.w3.org/1999/xlink" width="20px" height="20px" viewBox="0 0 20 20" version="1.1">
<g id="surface1">
<path style=" stroke:none;fill-rule:nonzero;fill:rgb(0%,0%,0%);fill-opacity:1;" d="M 15.125 0 L 4.875 0 C 4.003906 0 3.296875 0.707031 3.296875 1.578125 L 3.296875 16.253906 C 3.296875 17.125 4.003906 17.832031 4.875 17.832031 L 8.636719 17.832031 L 8.636719 19.648438 C 8.636719 19.84375 8.792969 20 8.984375 20 C 9.179688 20 9.335938 19.84375 9.335938 19.648438 L 9.335938 17.832031 L 10.664062 17.832031 L 10.664062 19.648438 C 10.664062 19.84375 10.820312 20 11.015625 20 C 11.207031 20 11.363281 19.84375 11.363281 19.648438 L 11.363281 17.832031 L 15.125 17.832031 C 15.996094 17.832031 16.703125 17.125 16.703125 16.253906 L 16.703125 1.578125 C 16.703125 0.707031 15.996094 0 15.125 0 Z M 15.125 17.132812 L 4.875 17.132812 C 4.390625 17.132812 3.996094 16.738281 3.996094 16.253906 L 3.996094 1.578125 C 3.996094 1.09375 4.390625 0.699219 4.875 0.699219 L 15.125 0.699219 C 15.609375 0.699219 16.003906 1.09375 16.003906 1.578125 L 16.003906 16.253906 C 16.003906 16.738281 15.609375 17.132812 15.125 17.132812 Z M 15.125 17.132812 "/>
<path style=" stroke:none;fill-rule:nonzero;fill:rgb(0%,0%,0%);fill-opacity:1;" d="M 10 11.695312 C 8.726562 11.695312 7.691406 12.730469 7.691406 14.003906 C 7.691406 15.273438 8.726562 16.3125 10 16.3125 C 11.273438 16.3125 12.308594 15.273438 12.308594 14.003906 C 12.308594 12.730469 11.273438 11.695312 10 11.695312 Z M 10 15.613281 C 9.113281 15.613281 8.390625 14.890625 8.390625 14.003906 C 8.390625 13.113281 9.113281 12.394531 10 12.394531 C 10.886719 12.394531 11.609375 13.113281 11.609375 14.003906 C 11.609375 14.890625 10.886719 15.613281 10 15.613281 Z M 10 15.613281 "/>
<path style=" stroke:none;fill-rule:nonzero;fill:rgb(0%,0%,0%);fill-opacity:1;" d="M 10 13.003906 C 9.808594 13.003906 9.648438 13.160156 9.648438 13.351562 L 9.648438 14.003906 C 9.648438 14.195312 9.808594 14.351562 10 14.351562 C 10.191406 14.351562 10.351562 14.195312 10.351562 14.003906 L 10.351562 13.351562 C 10.351562 13.160156 10.191406 13.003906 10 13.003906 Z M 10 13.003906 "/>
<path style=" stroke:none;fill-rule:nonzero;fill:rgb(0%,0%,0%);fill-opacity:1;" d="M 12.023438 6.191406 C 11.710938 5.542969 11.230469 5.199219 11.210938 5.183594 C 11.089844 5.101562 10.929688 5.097656 10.8125 5.183594 C 10.691406 5.265625 10.632812 5.414062 10.671875 5.554688 C 10.675781 5.574219 10.679688 5.589844 10.683594 5.605469 C 10.242188 4.414062 9.378906 3.886719 9.332031 3.859375 C 9.210938 3.785156 9.058594 3.792969 8.945312 3.875 C 8.835938 3.957031 8.78125 4.101562 8.8125 4.238281 L 8.929688 4.738281 C 9.046875 5.257812 8.867188 5.789062 8.460938 6.128906 C 7.769531 6.703125 7.523438 7.65625 7.84375 8.492188 L 8.023438 8.964844 C 8.089844 9.144531 8.292969 9.234375 8.472656 9.167969 C 8.652344 9.097656 8.746094 8.894531 8.675781 8.714844 L 8.496094 8.242188 C 8.28125 7.683594 8.449219 7.050781 8.90625 6.667969 C 9.371094 6.28125 9.636719 5.734375 9.664062 5.152344 C 9.949219 5.570312 10.222656 6.183594 10.234375 7.027344 C 10.238281 7.171875 10.328125 7.300781 10.464844 7.347656 C 10.597656 7.398438 10.75 7.359375 10.847656 7.253906 C 10.867188 7.230469 11.175781 6.875 11.324219 6.355469 C 11.605469 6.847656 11.792969 7.636719 11.230469 8.707031 C 11.140625 8.878906 11.203125 9.089844 11.375 9.179688 C 11.425781 9.207031 11.484375 9.21875 11.539062 9.21875 C 11.664062 9.21875 11.785156 9.152344 11.847656 9.03125 C 12.515625 7.761719 12.3125 6.785156 12.023438 6.191406 Z M 12.023438 6.191406 "/>
<path style=" stroke:none;fill-rule:nonzero;fill:rgb(0%,0%,0%);fill-opacity:1;" d="M 13.800781 2.59375 L 6.199219 2.59375 C 6.003906 2.59375 5.847656 2.753906 5.847656 2.945312 L 5.847656 10.546875 C 5.847656 10.742188 6.003906 10.898438 6.199219 10.898438 L 13.800781 10.898438 C 13.996094 10.898438 14.152344 10.742188 14.152344 10.546875 L 14.152344 2.945312 C 14.152344 2.753906 13.996094 2.59375 13.800781 2.59375 Z M 13.453125 10.199219 L 6.546875 10.199219 L 6.546875 3.296875 L 13.453125 3.296875 Z M 13.453125 10.199219 "/>
</g>
</svg>
